<?xml version="1.0" encoding="UTF-8" standalone="no"?>
<!-- Created with Inkscape (http://www.inkscape.org/) -->

<svg
   version="1.1"
   id="svg1"
   width="404.93631"
   height="501.94662"
   viewBox="0 0 404.93631 501.94663"
   xmlns="http://www.w3.org/2000/svg"
   xmlns:svg="http://www.w3.org/2000/svg">
  <defs
     id="defs1" />
  <g
     id="g1"
     transform="translate(-194.38518,-145.88002)">
    <g
       id="group-R5">
      <path
         id="path2"
         d="m 3316.61,2902.37 c 0,-176.95 -143.44,-320.39 -320.39,-320.39 -176.94,0 -320.39,143.44 -320.39,320.39 0,176.95 143.45,320.39 320.39,320.39 176.95,0 320.39,-143.44 320.39,-320.39"
         style="fill:#36a693;fill-opacity:1;fill-rule:nonzero;stroke:none"
         transform="matrix(0.13333333,0,0,-0.13333333,0,793.70667)" />
      <path
         id="path3"
         d="m 4341.73,1904.6 c -57.24,-78.46 -174,-94.93 -261.87,-94.93 -143.47,0 -322.97,41.47 -520.88,116.64 45.62,191.96 77.14,405.58 93.02,630.93 100.72,84.95 195.09,171.84 281.69,259.27 98.97,-106.88 185.08,-213.67 255.44,-317.62 179.27,-264.87 234.9,-481.48 152.6,-594.29 z m -975.16,-220.46 c -108.32,-300.94 -250.54,-473.53 -390.17,-473.53 -139.64,0 -281.85,172.59 -390.17,473.53 -19.51,54.19 -37.51,111.46 -54.03,171.31 142.79,59.94 292.4,135.23 444.2,223.95 151.8,-88.73 301.41,-164.02 444.2,-223.95 -16.52,-59.86 -34.52,-117.12 -54.03,-171.31 z m -1493.63,125.53 c -87.87,0 -204.63,16.47 -261.87,94.93 -82.3,112.81 -26.67,329.42 152.61,594.29 70.35,103.95 156.47,210.74 255.43,317.61 86.6,-87.43 180.97,-174.31 281.69,-259.26 15.89,-225.35 47.4,-438.97 93.03,-630.93 -197.92,-75.17 -377.42,-116.65 -520.89,-116.64 z M 1763.68,3302.4 c -179.28,264.88 -234.91,481.49 -152.61,594.3 57.24,78.46 174,94.93 261.86,94.93 143.48,0 322.98,-41.47 520.9,-116.64 -45.63,-191.97 -77.14,-405.58 -93.03,-630.94 -100.72,-84.95 -195.09,-171.83 -281.69,-259.26 -98.96,106.88 -185.08,213.66 -255.43,317.61 z m 822.55,814.75 c 108.32,300.94 250.53,473.54 390.17,473.54 139.63,0 281.85,-172.6 390.17,-473.54 19.51,-54.18 37.51,-111.45 54.03,-171.3 -142.79,-59.93 -292.4,-135.23 -444.2,-223.95 -151.8,88.72 -301.41,164.02 -444.2,223.95 16.52,59.85 34.52,117.12 54.03,171.3 z M 3660.62,3082.62 c 67.81,-60.11 132.16,-120.94 192.52,-181.97 -60.36,-61.04 -124.71,-121.86 -192.52,-181.98 2.2,60.09 3.34,120.8 3.34,181.98 0,61.18 -1.14,121.89 -3.34,181.97 z m -569.76,570.05 c 122.43,68.9 243.08,128.68 358.88,178.13 34.66,-149.6 60.54,-312.8 76.93,-484.65 -47.24,37.19 -95.62,73.89 -145.05,109.95 -96.51,70.4 -193.82,136.02 -290.76,196.57 z m -664.73,-306.52 c 16.39,171.85 42.28,335.05 76.94,484.65 115.79,-49.45 236.45,-109.23 358.87,-178.13 -96.94,-60.55 -194.26,-126.17 -290.76,-196.57 -49.43,-36.06 -97.8,-72.76 -145.05,-109.95 z m -133.95,-627.48 c -67.81,60.12 -132.15,120.94 -192.51,181.98 60.36,61.03 124.7,121.86 192.51,181.98 -2.2,-60.09 -3.33,-120.8 -3.33,-181.98 0,-61.18 1.13,-121.89 3.33,-181.98 z m 569.76,-570.04 c -122.42,-68.9 -243.08,-128.68 -358.87,-178.14 -34.66,149.6 -60.55,312.8 -76.94,484.65 47.25,-37.19 95.62,-73.89 145.05,-109.95 96.51,-70.4 193.82,-136.02 290.76,-196.56 z m 664.73,306.51 c -16.39,-171.85 -42.27,-335.04 -76.93,-484.64 -115.8,49.45 -236.45,109.23 -358.88,178.13 96.94,60.54 194.26,126.16 290.76,196.56 49.43,36.06 97.81,72.76 145.05,109.95 z m -213.71,-15.83 c -111.16,-81.09 -224.16,-156.02 -336.56,-223.88 -112.4,67.86 -225.4,142.79 -336.56,223.88 -78.23,57.07 -153.72,115.71 -226.04,175.37 -5.57,93.58 -8.45,189.13 -8.45,285.97 0,96.83 2.88,192.38 8.45,285.96 72.32,59.66 147.81,118.3 226.04,175.37 111.16,81.09 224.16,156.03 336.56,223.89 112.4,-67.86 225.4,-142.8 336.56,-223.89 78.23,-57.07 153.73,-115.71 226.04,-175.37 5.58,-93.58 8.45,-189.13 8.45,-285.96 0,-96.83 -2.87,-192.39 -8.45,-285.97 -72.31,-59.65 -147.81,-118.29 -226.04,-175.37 z m 766.9,1552.32 c 87.87,0 204.63,-16.47 261.87,-94.93 82.3,-112.81 26.67,-329.42 -152.6,-594.3 -70.36,-103.95 -156.47,-210.73 -255.44,-317.61 -86.6,87.43 -180.97,174.31 -281.69,259.26 -15.88,225.36 -47.4,438.97 -93.02,630.94 197.91,75.17 377.41,116.64 520.88,116.64 z m -65.38,-1090.98 c 105.08,113.01 196.49,226.16 271.13,336.45 211.51,312.5 264.87,571.14 150.24,728.26 -68.14,93.4 -191.24,142.78 -355.99,142.78 -155.28,0 -343.92,-41.94 -550.37,-119 -16.38,58.34 -34.15,114.28 -53.29,167.47 -127.81,355.05 -305.31,550.58 -499.8,550.58 -194.49,0 -371.99,-195.53 -499.79,-550.58 -19.15,-53.19 -36.92,-109.13 -53.3,-167.47 -206.45,77.06 -395.09,119 -550.38,119 -164.74,0 -287.84,-49.37 -355.98,-142.78 -114.63,-157.12 -61.27,-415.76 150.24,-728.26 74.65,-110.29 166.05,-223.44 271.13,-336.45 -105.08,-113.01 -196.48,-226.17 -271.13,-336.45 -211.51,-312.51 -264.87,-571.14 -150.24,-728.27 69.11,-94.73 188.88,-142.77 355.98,-142.77 0.03,0 -0.01,0 0.01,0 155.29,0 343.92,41.94 550.37,119 16.38,-58.34 34.15,-114.29 53.3,-167.47 127.8,-355.05 305.3,-550.59 499.79,-550.59 194.49,0 371.99,195.54 499.8,550.59 19.14,53.18 36.92,109.13 53.29,167.47 206.45,-77.06 395.09,-119 550.37,-119 164.75,0 287.85,49.37 355.99,142.77 114.63,157.13 61.27,415.76 -150.24,728.27 -74.64,110.28 -166.05,223.44 -271.13,336.45"
         style="fill:#1d1e1e;fill-opacity:1;fill-rule:nonzero;stroke:none"
         transform="matrix(0.13333333,0,0,-0.13333333,0,793.70667)" />
      <path
         id="path4"
         d="m 4471.22,2509.2 c 0,-115.85 -93.91,-209.76 -209.75,-209.76 -115.85,0 -209.76,93.91 -209.76,209.76 0,115.85 93.91,209.76 209.76,209.76 115.84,0 209.75,-93.91 209.75,-209.76"
         style="fill:#36a693;fill-opacity:1;fill-rule:nonzero;stroke:none"
         transform="matrix(0.13333333,0,0,-0.13333333,0,793.70667)" />
      <path
         id="path5"
         d="m 3205.98,4648.94 c 0,-115.85 -93.91,-209.76 -209.76,-209.76 -115.84,0 -209.76,93.91 -209.76,209.76 0,115.85 93.92,209.76 209.76,209.76 115.85,0 209.76,-93.91 209.76,-209.76"
         style="fill:#36a693;fill-opacity:1;fill-rule:nonzero;stroke:none"
         transform="matrix(0.13333333,0,0,-0.13333333,0,793.70667)" />
      <path
         id="path6"
         d="m 2245.09,1784.1 c 0,-115.85 -93.92,-209.76 -209.76,-209.76 -115.85,0 -209.76,93.91 -209.76,209.76 0,115.84 93.91,209.76 209.76,209.76 115.84,0 209.76,-93.92 209.76,-209.76"
         style="fill:#36a693;fill-opacity:1;fill-rule:nonzero;stroke:none"
         transform="matrix(0.13333333,0,0,-0.13333333,0,793.70667)" />
    </g>
  </g>
</svg>
